<?xml version="1.0" encoding="utf-8"?>
<svg viewBox="0 0 1024 190" xmlns="http://www.w3.org/2000/svg" xmlns:bx="https://boxy-svg.com">
  <defs>
    <radialGradient id="gradient-3" gradientUnits="userSpaceOnUse" cx="152.286" cy="126.898" r="330" gradientTransform="matrix(0.638467, -1.091841, 1.097297, 0.641658, 52.727183, 218.434182)">
      <stop offset="0" style="stop-color: rgb(0, 170, 237);"/>
      <stop offset="1" style="stop-color: rgb(0, 145, 202);"/>
    </radialGradient>
    <linearGradient id="gradient-4" gradientUnits="userSpaceOnUse" x1="330" y1="0" x2="330" y2="660" gradientTransform="matrix(0.980745, -0.195296, 0.195753, 0.983035, -58.663244, 70.697931)">
      <stop offset="0" style="stop-color: rgb(152, 226, 255);"/>
      <stop offset="1" style="stop-color: rgb(78, 193, 239);"/>
    </linearGradient>
    <linearGradient gradientUnits="userSpaceOnUse" x1="512" y1="92" x2="512" y2="932" id="gradient-2" gradientTransform="matrix(1, 0, 0, 1, -356.987823, 255.681793)">
      <stop offset="0" style="stop-color: rgb(101, 211, 255); stop-opacity: 0.5;"/>
      <stop offset="1" style="stop-color: rgb(102, 212, 255);"/>
    </linearGradient>
  </defs>
  <path d="M 281.068 118.813 Q 282.472 118.813 283.486 119.983 Q 284.5 121.153 284.5 122.713 Q 284.5 126.145 279.196 129.421 Q 267.964 136.129 255.484 136.129 Q 238.168 136.129 228.184 125.677 Q 218.2 115.225 218.2 96.973 Q 218.2 85.273 222.646 76.303 Q 227.092 67.333 235.126 62.419 Q 243.16 57.505 253.612 57.505 Q 268.276 57.505 276.778 66.943 Q 285.28 76.381 285.28 92.917 Q 285.28 95.725 284.032 97.051 Q 282.784 98.377 279.976 98.377 L 228.028 98.377 Q 228.496 112.729 235.516 120.217 Q 242.536 127.705 255.328 127.705 Q 262.036 127.705 266.56 125.911 Q 271.084 124.117 276.232 121.153 Q 279.664 118.813 281.068 118.813 Z M 253.612 65.305 Q 242.692 65.305 236.14 72.169 Q 229.588 79.033 228.34 91.357 L 276.544 91.357 Q 276.232 78.877 270.304 72.091 Q 264.376 65.305 253.612 65.305 Z" style="fill: rgb(132, 134, 136); white-space: pre;"/>
  <path d="M 335.043 57.505 Q 348.771 57.505 355.557 64.681 Q 362.343 71.857 362.343 86.365 L 362.343 130.825 Q 362.343 133.009 361.095 134.335 Q 359.847 135.661 357.663 135.661 Q 355.479 135.661 354.231 134.335 Q 352.983 133.009 352.983 130.825 L 352.983 121.465 Q 349.707 128.485 343.467 132.307 Q 337.227 136.129 329.115 136.129 Q 321.783 136.129 315.699 133.165 Q 309.615 130.201 306.105 124.897 Q 302.595 119.593 302.595 113.197 Q 302.595 104.773 306.963 100.093 Q 311.331 95.413 321.471 93.385 Q 331.611 91.357 349.707 91.357 L 352.983 91.357 L 352.983 85.585 Q 352.983 75.289 348.771 70.531 Q 344.559 65.773 335.511 65.773 Q 323.967 65.773 313.515 71.857 Q 313.047 72.169 311.097 73.495 Q 309.147 74.821 307.743 74.821 Q 306.183 74.821 305.169 73.651 Q 304.155 72.481 304.155 70.765 Q 304.155 67.333 309.615 64.057 Q 315.075 60.937 321.783 59.221 Q 328.491 57.505 335.043 57.505 Z M 329.895 127.861 Q 340.035 127.861 346.509 120.997 Q 352.983 114.133 352.983 103.525 L 352.983 98.377 L 350.019 98.377 Q 335.043 98.377 327.087 99.625 Q 319.131 100.873 315.855 103.915 Q 312.579 106.957 312.579 112.729 Q 312.579 119.281 317.571 123.571 Q 322.563 127.861 329.895 127.861 Z" style="fill: rgb(132, 134, 136); white-space: pre;"/>
  <path d="M 411.637 136.129 Q 405.085 136.129 398.767 134.335 Q 392.449 132.541 387.613 129.421 Q 384.649 127.393 383.479 125.911 Q 382.309 124.429 382.309 122.557 Q 382.309 120.997 383.323 119.905 Q 384.337 118.813 385.741 118.813 Q 387.145 118.813 390.577 121.153 Q 395.101 124.117 399.859 125.989 Q 404.617 127.861 411.793 127.861 Q 420.997 127.861 426.145 124.507 Q 431.293 121.153 431.293 114.913 Q 431.293 111.169 429.421 108.751 Q 427.549 106.333 423.181 104.539 Q 418.813 102.745 410.701 101.029 Q 396.817 97.909 390.967 92.995 Q 385.117 88.081 385.117 79.813 Q 385.117 69.829 392.917 63.667 Q 400.717 57.505 413.197 57.505 Q 419.281 57.505 424.819 59.065 Q 430.357 60.625 434.413 63.589 Q 439.873 67.333 439.873 70.921 Q 439.873 72.481 438.859 73.651 Q 437.845 74.821 436.441 74.821 Q 434.881 74.821 431.605 72.325 Q 427.393 69.361 423.259 67.567 Q 419.125 65.773 412.729 65.773 Q 404.617 65.773 399.781 69.439 Q 394.945 73.105 394.945 79.345 Q 394.945 82.933 396.583 85.273 Q 398.221 87.613 402.199 89.407 Q 406.177 91.201 413.665 92.917 Q 424.429 95.413 430.201 98.221 Q 435.973 101.029 438.469 104.929 Q 440.965 108.829 440.965 114.913 Q 440.965 124.429 432.931 130.279 Q 424.897 136.129 411.637 136.129 Z" style="fill: rgb(132, 134, 136); white-space: pre;"/>
  <path d="M 515.689 60.625 Q 516.937 57.817 519.745 57.817 Q 521.461 57.817 522.865 59.065 Q 524.269 60.313 524.269 62.029 Q 524.269 63.121 523.801 64.057 L 479.653 160.933 Q 478.405 163.585 475.597 163.585 Q 473.881 163.585 472.555 162.493 Q 471.229 161.401 471.229 159.685 Q 471.229 158.749 471.697 157.813 L 482.773 133.633 L 450.793 64.057 Q 450.325 63.121 450.325 62.185 Q 450.325 60.313 451.963 58.987 Q 453.601 57.661 455.473 57.661 Q 458.437 57.661 459.529 60.469 L 487.609 123.493 L 515.689 60.625 Z" style="fill: rgb(132, 134, 136); white-space: pre;"/>
  <path d="M 575.291 123.805 Q 578.723 124.117 580.205 125.599 Q 581.687 127.081 581.687 129.733 Q 581.687 132.853 579.269 134.491 Q 576.851 136.129 572.171 135.817 L 567.959 135.505 Q 555.323 134.569 549.083 127.783 Q 542.843 120.997 542.843 107.737 L 542.843 71.077 L 533.483 71.077 Q 526.619 71.077 526.619 64.993 Q 526.619 62.185 528.413 60.547 Q 530.207 58.909 533.483 58.909 L 542.843 58.909 L 542.843 42.841 Q 542.843 39.253 544.949 37.225 Q 547.055 35.197 550.643 35.197 Q 554.231 35.197 556.415 37.225 Q 558.599 39.253 558.599 42.841 L 558.599 58.909 L 574.043 58.909 Q 577.319 58.909 579.113 60.547 Q 580.907 62.185 580.907 64.993 Q 580.907 67.957 579.113 69.517 Q 577.319 71.077 574.043 71.077 L 558.599 71.077 L 558.599 108.829 Q 558.599 116.161 561.641 119.593 Q 564.683 123.025 570.923 123.493 L 575.291 123.805 Z" style="fill: rgb(132, 134, 136); white-space: pre;"/>
  <path d="M 652.662 115.849 Q 654.846 115.849 656.25 117.565 Q 657.654 119.281 657.654 121.933 Q 657.654 126.457 652.038 129.577 Q 646.578 132.697 640.104 134.413 Q 633.63 136.129 627.702 136.129 Q 609.606 136.129 599.154 125.599 Q 588.702 115.069 588.702 96.817 Q 588.702 85.117 593.304 76.069 Q 597.906 67.021 606.252 62.029 Q 614.598 57.037 625.206 57.037 Q 640.494 57.037 649.386 66.865 Q 658.278 76.693 658.278 93.385 Q 658.278 99.625 652.662 99.625 L 604.458 99.625 Q 606.018 123.805 627.702 123.805 Q 633.474 123.805 637.686 122.245 Q 641.898 120.685 646.578 118.189 Q 647.046 117.877 649.152 116.863 Q 651.258 115.849 652.662 115.849 Z M 625.518 68.581 Q 616.47 68.581 611.01 74.353 Q 605.55 80.125 604.458 90.577 L 644.706 90.577 Q 644.238 79.969 639.324 74.275 Q 634.41 68.581 625.518 68.581 Z" style="fill: rgb(132, 134, 136); white-space: pre;"/>
  <path d="M 738.928 123.181 Q 741.268 125.521 741.268 128.641 Q 741.268 131.605 739.162 133.711 Q 737.056 135.817 734.092 135.817 Q 731.128 135.817 728.632 133.165 L 704.764 106.333 L 681.052 133.165 Q 678.556 135.817 675.592 135.817 Q 672.628 135.817 670.522 133.633 Q 668.416 131.449 668.416 128.485 Q 668.416 125.521 670.6 123.181 L 695.248 96.037 L 671.848 69.985 Q 669.508 67.333 669.508 64.681 Q 669.508 61.717 671.692 59.611 Q 673.876 57.505 676.684 57.505 Q 679.648 57.505 682.144 60.157 L 704.764 85.741 L 727.384 60.157 Q 729.88 57.505 733 57.505 Q 735.808 57.505 737.992 59.611 Q 740.176 61.717 740.176 64.681 Q 740.176 67.645 737.836 69.985 L 714.436 96.037 L 738.928 123.181 Z" style="fill: rgb(132, 134, 136); white-space: pre;"/>
  <path d="M 794.002 123.805 Q 797.434 124.117 798.916 125.599 Q 800.398 127.081 800.398 129.733 Q 800.398 132.853 797.98 134.491 Q 795.562 136.129 790.882 135.817 L 786.67 135.505 Q 774.034 134.569 767.794 127.783 Q 761.554 120.997 761.554 107.737 L 761.554 71.077 L 752.194 71.077 Q 745.33 71.077 745.33 64.993 Q 745.33 62.185 747.124 60.547 Q 748.918 58.909 752.194 58.909 L 761.554 58.909 L 761.554 42.841 Q 761.554 39.253 763.66 37.225 Q 765.766 35.197 769.354 35.197 Q 772.942 35.197 775.126 37.225 Q 777.31 39.253 777.31 42.841 L 777.31 58.909 L 792.754 58.909 Q 796.03 58.909 797.824 60.547 Q 799.618 62.185 799.618 64.993 Q 799.618 67.957 797.824 69.517 Q 796.03 71.077 792.754 71.077 L 777.31 71.077 L 777.31 108.829 Q 777.31 116.161 780.352 119.593 Q 783.394 123.025 789.634 123.493 L 794.002 123.805 Z" style="fill: rgb(132, 134, 136); white-space: pre;"/>
  <path d="M 870.749 57.349 Q 874.337 57.349 876.443 59.377 Q 878.549 61.405 878.549 64.993 L 878.549 128.485 Q 878.549 131.761 876.365 133.789 Q 874.181 135.817 870.593 135.817 Q 867.317 135.817 865.289 133.867 Q 863.261 131.917 863.261 128.641 L 863.261 122.713 Q 859.673 129.265 853.355 132.697 Q 847.037 136.129 839.237 136.129 Q 811.469 136.129 811.469 105.553 L 811.469 64.993 Q 811.469 61.405 813.575 59.377 Q 815.681 57.349 819.425 57.349 Q 823.013 57.349 825.119 59.377 Q 827.225 61.405 827.225 64.993 L 827.225 105.397 Q 827.225 114.601 830.969 118.969 Q 834.713 123.337 842.513 123.337 Q 851.717 123.337 857.255 117.409 Q 862.793 111.481 862.793 101.653 L 862.793 64.993 Q 862.793 61.561 864.977 59.455 Q 867.161 57.349 870.749 57.349 Z" style="fill: rgb(132, 134, 136); white-space: pre;"/>
  <path d="M 940.482 57.349 Q 947.97 56.881 947.97 63.745 Q 947.97 67.177 946.254 68.893 Q 944.538 70.609 940.326 70.921 L 935.646 71.389 Q 925.818 72.325 921.06 78.253 Q 916.302 84.181 916.302 92.605 L 916.302 128.329 Q 916.302 132.073 914.118 133.945 Q 911.934 135.817 908.502 135.817 Q 905.07 135.817 902.808 133.945 Q 900.546 132.073 900.546 128.329 L 900.546 64.837 Q 900.546 61.249 902.808 59.299 Q 905.07 57.349 908.502 57.349 Q 911.622 57.349 913.728 59.299 Q 915.834 61.249 915.834 64.681 L 915.834 72.169 Q 918.954 65.305 924.882 61.717 Q 930.81 58.129 938.298 57.505 L 940.482 57.349 Z" style="fill: rgb(132, 134, 136); white-space: pre;"/>
  <path d="M 1015.677 115.849 Q 1017.861 115.849 1019.265 117.565 Q 1020.669 119.281 1020.669 121.933 Q 1020.669 126.457 1015.053 129.577 Q 1009.593 132.697 1003.119 134.413 Q 996.645 136.129 990.717 136.129 Q 972.621 136.129 962.169 125.599 Q 951.717 115.069 951.717 96.817 Q 951.717 85.117 956.319 76.069 Q 960.921 67.021 969.267 62.029 Q 977.613 57.037 988.221 57.037 Q 1003.509 57.037 1012.401 66.865 Q 1021.293 76.693 1021.293 93.385 Q 1021.293 99.625 1015.677 99.625 L 967.473 99.625 Q 969.033 123.805 990.717 123.805 Q 996.489 123.805 1000.701 122.245 Q 1004.913 120.685 1009.593 118.189 Q 1010.061 117.877 1012.167 116.863 Q 1014.273 115.849 1015.677 115.849 Z M 988.533 68.581 Q 979.485 68.581 974.025 74.353 Q 968.565 80.125 967.473 90.577 L 1007.721 90.577 Q 1007.253 79.969 1002.339 74.275 Q 997.425 68.581 988.533 68.581 Z" style="fill: rgb(132, 134, 136); white-space: pre;"/>
  <g transform="matrix(0.183838, 0, 0, 0.183838, 66.927063, -46.05254)">
    <g transform="matrix(1.5, 0, 0, 1.5, -339.987823, 272.681793)">
      <g>
        <circle style="stroke-width: 20px; fill: url(#gradient-3); stroke: url(#gradient-4);" cx="330" cy="330" r="330"/>
        <circle style="fill: rgb(255, 255, 255); stroke: rgb(152, 226, 255); stroke-width: 20px;" cx="330.602" cy="330.52" r="75"/>
      </g>
    </g>
    <ellipse style="fill: none; stroke: rgb(101, 211, 255); stroke-width: 30px; stroke-opacity: 0.85;" cx="155.012" cy="767.682" rx="254.5" ry="254.5"/>
    <ellipse style="fill: none; stroke: url(#gradient-2); stroke-width: 25px; stroke-opacity: 0.85;" cx="155.012" cy="767.682" rx="420" ry="420"/>
    <ellipse style="fill: rgb(102, 211, 255);" cx="155.012" cy="767.682" rx="135" ry="135"/>
    <ellipse style="fill: rgb(152, 226, 255);" cx="155.012" cy="767.682" rx="105" ry="105"/>
    <ellipse style="fill: rgb(179, 233, 255);" cx="155.012" cy="767.682" rx="70" ry="70"/>
    <ellipse style="fill: rgb(255, 255, 255);" cx="155.012" cy="767.682" rx="50" ry="50"/>
    <g transform="matrix(1, 0, 0, 1, -356.987823, 255.681793)" bx:origin="-0.297261 2.388684">
      <path style="fill: rgb(102, 211, 255);" d="M 559.796 261.866 L 645.901 261.322 L 690.135 290.03 L 720.584 366.266 L 653.464 337.312 L 612.824 311.236 L 559.796 261.866 Z"/>
      <path style="fill: rgb(152, 226, 255); fill-opacity: 0.7;" d="M 587.376 269.073 L 646.004 261.982 L 689.549 290.074 L 704.091 344.808 L 653.022 336.352 L 613.391 312.094 L 587.376 269.073 Z"/>
      <path style="fill: rgb(179, 233, 255); fill-opacity: 0.7;" d="M 608.651 276.593 L 645.702 269.684 L 681.791 293.685 L 688.052 328.174 L 653.91 327.554 L 621.362 307.063 L 608.651 276.593 Z"/>
      <path style="fill: rgb(255, 255, 255); fill-opacity: 0.7;" d="M 628.883 286.24 L 647.073 282.255 L 670.419 297.922 L 674.117 315.242 L 657.567 316.609 L 635.629 303.249 L 628.883 286.24 Z"/>
    </g>
    <g transform="matrix(-1, 0, 0, -1, 667.012146, 1279.681885)" bx:origin="-0.297261 2.388684">
      <path style="fill: rgb(102, 211, 255);" d="M 559.796 261.866 L 645.901 261.322 L 690.135 290.03 L 720.584 366.266 L 653.464 337.312 L 612.824 311.236 L 559.796 261.866 Z"/>
      <path style="fill: rgb(152, 226, 255); fill-opacity: 0.3;" d="M 587.376 269.073 L 646.004 261.982 L 689.549 290.074 L 704.091 344.808 L 653.022 336.352 L 613.391 312.094 L 587.376 269.073 Z"/>
      <path style="fill: rgb(179, 233, 255); fill-opacity: 0.3;" d="M 608.651 276.593 L 645.702 269.684 L 681.791 293.685 L 688.052 328.174 L 653.91 327.554 L 621.362 307.063 L 608.651 276.593 Z"/>
      <path style="fill: rgb(255, 255, 255); fill-opacity: 0.3;" d="M 628.883 286.24 L 647.073 282.255 L 670.419 297.922 L 674.117 315.242 L 657.567 316.609 L 635.629 303.249 L 628.883 286.24 Z"/>
    </g>
    <g transform="matrix(0.5, -0.866025, 0.866025, 0.5, -544.392883, 955.08728)" bx:origin="-0.297261 2.388684">
      <path style="fill: rgb(102, 211, 255);" d="M 559.796 261.866 L 645.901 261.322 L 690.135 290.03 L 720.584 366.266 L 653.464 337.312 L 612.824 311.236 L 559.796 261.866 Z"/>
      <path style="fill: rgb(152, 226, 255);" d="M 587.376 269.073 L 646.004 261.982 L 689.549 290.074 L 704.091 344.808 L 653.022 336.352 L 613.391 312.094 L 587.376 269.073 Z"/>
      <path style="fill: rgb(179, 233, 255);" d="M 608.651 276.593 L 645.702 269.684 L 681.791 293.685 L 688.052 328.174 L 653.91 327.554 L 621.362 307.063 L 608.651 276.593 Z"/>
      <path style="fill: rgb(255, 255, 255);" d="M 628.883 286.24 L 647.073 282.255 L 670.419 297.922 L 674.117 315.242 L 657.567 316.609 L 635.629 303.249 L 628.883 286.24 Z"/>
    </g>
    <g transform="matrix(-0.500001, 0.866025, -0.866025, -0.500001, 854.417175, 580.276794)" bx:origin="-0.297261 2.388684">
      <path style="fill: rgb(102, 211, 255);" d="M 559.796 261.866 L 645.901 261.322 L 690.135 290.03 L 720.584 366.266 L 653.464 337.312 L 612.824 311.236 L 559.796 261.866 Z"/>
      <path style="fill: rgb(152, 226, 255); fill-opacity: 0.5;" d="M 587.376 269.073 L 646.004 261.982 L 689.549 290.074 L 704.091 344.808 L 653.022 336.352 L 613.391 312.094 L 587.376 269.073 Z"/>
      <path style="fill: rgb(179, 233, 255); fill-opacity: 0.5;" d="M 608.651 276.593 L 645.702 269.684 L 681.791 293.685 L 688.052 328.174 L 653.91 327.554 L 621.362 307.063 L 608.651 276.593 Z"/>
      <path style="fill: rgb(255, 255, 255); fill-opacity: 0.5;" d="M 628.883 286.24 L 647.073 282.255 L 670.419 297.922 L 674.117 315.242 L 657.567 316.609 L 635.629 303.249 L 628.883 286.24 Z"/>
    </g>
    <g transform="matrix(0.5, 0.866025, -0.866025, 0.5, 342.417267, 68.276779)" bx:origin="-0.297261 2.388684">
      <path style="fill: rgb(102, 211, 255);" d="M 559.796 261.866 L 645.901 261.322 L 690.135 290.03 L 720.584 366.266 L 653.464 337.312 L 612.824 311.236 L 559.796 261.866 Z"/>
      <path style="fill: rgb(152, 226, 255);" d="M 587.376 269.073 L 646.004 261.982 L 689.549 290.074 L 704.091 344.808 L 653.022 336.352 L 613.391 312.094 L 587.376 269.073 Z"/>
      <path style="fill: rgb(179, 233, 255);" d="M 608.651 276.593 L 645.702 269.684 L 681.791 293.685 L 688.052 328.174 L 653.91 327.554 L 621.362 307.063 L 608.651 276.593 Z"/>
      <path style="fill: rgb(255, 255, 255);" d="M 628.883 286.24 L 647.073 282.255 L 670.419 297.922 L 674.117 315.242 L 657.567 316.609 L 635.629 303.249 L 628.883 286.24 Z"/>
    </g>
    <g transform="matrix(-0.500001, -0.866025, 0.866025, -0.500001, -32.392834, 1467.086792)" bx:origin="-0.297261 2.388684">
      <path style="fill: rgb(102, 211, 255);" d="M 559.796 261.866 L 645.901 261.322 L 690.135 290.03 L 720.584 366.266 L 653.464 337.312 L 612.824 311.236 L 559.796 261.866 Z"/>
      <path style="fill: rgb(152, 226, 255); fill-opacity: 0.4;" d="M 587.376 269.073 L 646.004 261.982 L 689.549 290.074 L 704.091 344.808 L 653.022 336.352 L 613.391 312.094 L 587.376 269.073 Z"/>
      <path style="fill: rgb(179, 233, 255); fill-opacity: 0.4;" d="M 608.651 276.593 L 645.702 269.684 L 681.791 293.685 L 688.052 328.174 L 653.91 327.554 L 621.362 307.063 L 608.651 276.593 Z"/>
      <path style="fill: rgb(255, 255, 255); fill-opacity: 0.4;" d="M 628.883 286.24 L 647.073 282.255 L 670.419 297.922 L 674.117 315.242 L 657.567 316.609 L 635.629 303.249 L 628.883 286.24 Z"/>
    </g>
    <g transform="matrix(1, 0, 0, 1, -356.987823, 255.681793)">
      <path style="fill: rgb(102, 211, 255);" d="M 418.728 101.923 L 495.049 75.48 L 536.756 70.919 L 576.364 77.876 L 644.666 113.037 L 571.859 114.814 L 534.894 114.844 L 495.554 110.515 C 495.554 110.515 418.921 102.923 418.728 101.923 Z"/>
      <path style="fill: rgb(152, 226, 255);" d="M 451.585 98.338 L 497.443 79.711 L 536.462 76.377 L 573.23 82.009 L 612.655 105.276 L 568.903 110.508 L 535.205 110.048 L 497.584 105.827 L 451.585 98.338 Z"/>
      <path style="fill: rgb(179, 233, 255);" d="M 480.701 95.127 L 500 84.122 L 536.316 82.123 L 569.168 86.92 L 586.625 100 L 566.472 105.16 L 535.437 104.426 L 500 100 L 480.701 95.127 Z"/>
    </g>
    <g transform="matrix(-0.5, -0.866025, 0.866025, -0.5, -32.392895, 1467.08667)" bx:origin="0.412821 10.041684">
      <path style="fill: rgb(102, 211, 255);" d="M 418.728 101.923 L 495.049 75.48 L 536.756 70.919 L 576.364 77.876 L 644.666 113.037 L 571.859 114.814 L 534.894 114.844 L 495.554 110.515 C 495.554 110.515 418.921 102.923 418.728 101.923 Z"/>
      <path style="fill: rgb(152, 226, 255); fill-opacity: 0.4;" d="M 451.585 98.338 L 497.443 79.711 L 536.462 76.377 L 573.23 82.009 L 612.655 105.276 L 568.903 110.508 L 535.205 110.048 L 497.584 105.827 L 451.585 98.338 Z"/>
      <path style="fill: rgb(179, 233, 255); fill-opacity: 0.4;" d="M 480.701 95.127 L 500 84.122 L 536.316 82.123 L 569.168 86.92 L 586.625 100 L 566.472 105.16 L 535.437 104.426 L 500 100 L 480.701 95.127 Z"/>
    </g>
    <g transform="matrix(0.5, -0.866025, 0.866025, 0.5, -544.392883, 955.086792)" bx:origin="0.412821 10.041684">
      <path style="fill: rgb(102, 211, 255);" d="M 418.728 101.923 L 495.049 75.48 L 536.756 70.919 L 576.364 77.876 L 644.666 113.037 L 571.859 114.814 L 534.894 114.844 L 495.554 110.515 C 495.554 110.515 418.921 102.923 418.728 101.923 Z"/>
      <path style="fill: rgb(152, 226, 255);" d="M 451.585 98.338 L 497.443 79.711 L 536.462 76.377 L 573.23 82.009 L 612.655 105.276 L 568.903 110.508 L 535.205 110.048 L 497.584 105.827 L 451.585 98.338 Z"/>
      <path style="fill: rgb(179, 233, 255);" d="M 480.701 95.127 L 500 84.122 L 536.316 82.123 L 569.168 86.92 L 586.625 100 L 566.472 105.16 L 535.437 104.426 L 500 100 L 480.701 95.127 Z"/>
    </g>
    <g transform="matrix(0.5, 0.866025, -0.866025, 0.5, 342.417145, 68.276825)" bx:origin="0.412821 10.041684">
      <path style="fill: rgb(102, 211, 255);" d="M 418.728 101.923 L 495.049 75.48 L 536.756 70.919 L 576.364 77.876 L 644.666 113.037 L 571.859 114.814 L 534.894 114.844 L 495.554 110.515 C 495.554 110.515 418.921 102.923 418.728 101.923 Z"/>
      <path style="fill: rgb(152, 226, 255);" d="M 451.585 98.338 L 497.443 79.711 L 536.462 76.377 L 573.23 82.009 L 612.655 105.276 L 568.903 110.508 L 535.205 110.048 L 497.584 105.827 L 451.585 98.338 Z"/>
      <path style="fill: rgb(179, 233, 255);" d="M 480.701 95.127 L 500 84.122 L 536.316 82.123 L 569.168 86.92 L 586.625 100 L 566.472 105.16 L 535.437 104.426 L 500 100 L 480.701 95.127 Z"/>
    </g>
    <g transform="matrix(-0.5, 0.866025, -0.866025, -0.5, 854.417053, 580.276855)" bx:origin="0.412821 10.041684">
      <path style="fill: rgb(102, 211, 255);" d="M 418.728 101.923 L 495.049 75.48 L 536.756 70.919 L 576.364 77.876 L 644.666 113.037 L 571.859 114.814 L 534.894 114.844 L 495.554 110.515 C 495.554 110.515 418.921 102.923 418.728 101.923 Z"/>
      <path style="fill: rgb(152, 226, 255); fill-opacity: 0.7;" d="M 451.585 98.338 L 497.443 79.711 L 536.462 76.377 L 573.23 82.009 L 612.655 105.276 L 568.903 110.508 L 535.205 110.048 L 497.584 105.827 L 451.585 98.338 Z"/>
      <path style="fill: rgb(179, 233, 255); fill-opacity: 0.7;" d="M 480.701 95.127 L 500 84.122 L 536.316 82.123 L 569.168 86.92 L 586.625 100 L 566.472 105.16 L 535.437 104.426 L 500 100 L 480.701 95.127 Z"/>
    </g>
    <g transform="matrix(-1, 0, 0, -1, 667.012085, 1279.681763)" bx:origin="0.412821 10.041684">
      <path style="fill: rgb(102, 211, 255);" d="M 418.728 101.923 L 495.049 75.48 L 536.756 70.919 L 576.364 77.876 L 644.666 113.037 L 571.859 114.814 L 534.894 114.844 L 495.554 110.515 C 495.554 110.515 418.921 102.923 418.728 101.923 Z"/>
      <path style="fill: rgb(152, 226, 255);" d="M 451.585 98.338 L 497.443 79.711 L 536.462 76.377 L 573.23 82.009 L 612.655 105.276 L 568.903 110.508 L 535.205 110.048 L 497.584 105.827 L 451.585 98.338 Z"/>
      <path style="fill: rgb(179, 233, 255);" d="M 480.701 95.127 L 500 84.122 L 536.316 82.123 L 569.168 86.92 L 586.625 100 L 566.472 105.16 L 535.437 104.426 L 500 100 L 480.701 95.127 Z"/>
    </g>
  </g>
</svg>